<svg xmlns="http://www.w3.org/2000/svg" fill="#fff" class="fill-current h-5 w-5 text-gray-1000" viewBox="0 0 24 24"><path fill-rule="evenodd" d="M21.593 14.043c-1.43.078-5.041-.079-5.041-.079S10.382 23.078 9.404 23a17.62 17.62 0 0 1-1.956-.315s4.514-8.957 3.386-8.878c-1.129.078-6.094-.157-6.094-.157s-2.784 3.614-3.085 3.535c-.3 0-1.655-.157-1.655-.157S1.58 12.943 1.58 12v-.079C1.58 10.978 0 6.893 0 6.893s1.279-.157 1.655-.157c.301 0 3.16 3.535 3.16 3.535s4.966-.236 6.094-.157c1.129.079-3.385-8.878-3.385-8.878s.902-.157 1.88-.236c.978.079 7.223 9.193 7.223 9.193s3.611-.079 5.04-.079c1.43.079 2.333 1.964 2.333 1.964-.075.158-.978 1.965-2.407 1.965Z" clip-rule="evenodd"/></svg>